<mxfile host="Electron" agent="Mozilla/5.0 (Macintosh; Intel Mac OS X 10_15_7) AppleWebKit/537.36 (KHTML, like Gecko) draw.io/26.1.1 Chrome/132.0.6834.210 Electron/34.3.3 Safari/537.36" version="26.1.1">
  <diagram name="Page-1" id="gc-TR8ijOnA5Fyey2mkx">
    <mxGraphModel dx="1114" dy="854" grid="1" gridSize="10" guides="1" tooltips="1" connect="1" arrows="1" fold="1" page="1" pageScale="1" pageWidth="827" pageHeight="1169" math="0" shadow="0">
      <root>
        <mxCell id="0" />
        <mxCell id="1" parent="0" />
        <mxCell id="kxutMdqyqpS05VkYV1p_-1" value="" style="rounded=0;whiteSpace=wrap;html=1;fillColor=#f8cecc;strokeColor=#b85450;" vertex="1" parent="1">
          <mxGeometry x="80" y="80" width="20" height="30" as="geometry" />
        </mxCell>
        <mxCell id="kxutMdqyqpS05VkYV1p_-2" value="" style="rounded=0;whiteSpace=wrap;html=1;fillColor=#dae8fc;strokeColor=#6c8ebf;" vertex="1" parent="1">
          <mxGeometry x="100" y="80" width="20" height="30" as="geometry" />
        </mxCell>
        <mxCell id="kxutMdqyqpS05VkYV1p_-3" value="" style="rounded=0;whiteSpace=wrap;html=1;fillColor=#dae8fc;strokeColor=#6c8ebf;" vertex="1" parent="1">
          <mxGeometry x="120" y="80" width="20" height="30" as="geometry" />
        </mxCell>
        <mxCell id="kxutMdqyqpS05VkYV1p_-4" value="" style="rounded=0;whiteSpace=wrap;html=1;fillColor=#dae8fc;strokeColor=#6c8ebf;" vertex="1" parent="1">
          <mxGeometry x="140" y="80" width="20" height="30" as="geometry" />
        </mxCell>
        <mxCell id="kxutMdqyqpS05VkYV1p_-5" value="" style="rounded=0;whiteSpace=wrap;html=1;fillColor=#dae8fc;strokeColor=#6c8ebf;" vertex="1" parent="1">
          <mxGeometry x="160" y="80" width="20" height="30" as="geometry" />
        </mxCell>
        <mxCell id="kxutMdqyqpS05VkYV1p_-6" value="" style="rounded=0;whiteSpace=wrap;html=1;fillColor=#dae8fc;strokeColor=#6c8ebf;" vertex="1" parent="1">
          <mxGeometry x="180" y="80" width="20" height="30" as="geometry" />
        </mxCell>
        <mxCell id="kxutMdqyqpS05VkYV1p_-7" value="" style="rounded=0;whiteSpace=wrap;html=1;fillColor=#dae8fc;strokeColor=#6c8ebf;" vertex="1" parent="1">
          <mxGeometry x="200" y="80" width="20" height="30" as="geometry" />
        </mxCell>
        <mxCell id="kxutMdqyqpS05VkYV1p_-8" value="" style="rounded=0;whiteSpace=wrap;html=1;fillColor=#dae8fc;strokeColor=#6c8ebf;" vertex="1" parent="1">
          <mxGeometry x="220" y="80" width="20" height="30" as="geometry" />
        </mxCell>
        <mxCell id="kxutMdqyqpS05VkYV1p_-9" value="" style="rounded=0;whiteSpace=wrap;html=1;fillColor=#dae8fc;strokeColor=#6c8ebf;" vertex="1" parent="1">
          <mxGeometry x="240" y="80" width="20" height="30" as="geometry" />
        </mxCell>
        <mxCell id="kxutMdqyqpS05VkYV1p_-10" value="" style="rounded=0;whiteSpace=wrap;html=1;fillColor=#d5e8d4;strokeColor=#82b366;" vertex="1" parent="1">
          <mxGeometry x="260" y="80" width="20" height="30" as="geometry" />
        </mxCell>
        <mxCell id="kxutMdqyqpS05VkYV1p_-11" value="" style="rounded=0;whiteSpace=wrap;html=1;fillColor=#d5e8d4;strokeColor=#82b366;" vertex="1" parent="1">
          <mxGeometry x="280" y="80" width="20" height="30" as="geometry" />
        </mxCell>
        <mxCell id="kxutMdqyqpS05VkYV1p_-12" value="" style="rounded=0;whiteSpace=wrap;html=1;fillColor=#d5e8d4;strokeColor=#82b366;" vertex="1" parent="1">
          <mxGeometry x="300" y="80" width="20" height="30" as="geometry" />
        </mxCell>
        <mxCell id="kxutMdqyqpS05VkYV1p_-13" value="" style="rounded=0;whiteSpace=wrap;html=1;fillColor=#d5e8d4;strokeColor=#82b366;" vertex="1" parent="1">
          <mxGeometry x="320" y="80" width="20" height="30" as="geometry" />
        </mxCell>
        <mxCell id="kxutMdqyqpS05VkYV1p_-14" value="" style="rounded=0;whiteSpace=wrap;html=1;fillColor=#d5e8d4;strokeColor=#82b366;" vertex="1" parent="1">
          <mxGeometry x="340" y="80" width="20" height="30" as="geometry" />
        </mxCell>
        <mxCell id="kxutMdqyqpS05VkYV1p_-15" value="" style="rounded=0;whiteSpace=wrap;html=1;fillColor=#d5e8d4;strokeColor=#82b366;" vertex="1" parent="1">
          <mxGeometry x="360" y="80" width="20" height="30" as="geometry" />
        </mxCell>
        <mxCell id="kxutMdqyqpS05VkYV1p_-16" value="" style="rounded=0;whiteSpace=wrap;html=1;fillColor=#d5e8d4;strokeColor=#82b366;" vertex="1" parent="1">
          <mxGeometry x="380" y="80" width="20" height="30" as="geometry" />
        </mxCell>
        <mxCell id="kxutMdqyqpS05VkYV1p_-17" value="" style="rounded=0;whiteSpace=wrap;html=1;fillColor=#d5e8d4;strokeColor=#82b366;" vertex="1" parent="1">
          <mxGeometry x="400" y="80" width="20" height="30" as="geometry" />
        </mxCell>
        <mxCell id="kxutMdqyqpS05VkYV1p_-18" value="" style="rounded=0;whiteSpace=wrap;html=1;fillColor=#d5e8d4;strokeColor=#82b366;" vertex="1" parent="1">
          <mxGeometry x="420" y="80" width="20" height="30" as="geometry" />
        </mxCell>
        <mxCell id="kxutMdqyqpS05VkYV1p_-19" value="" style="rounded=0;whiteSpace=wrap;html=1;fillColor=#d5e8d4;strokeColor=#82b366;" vertex="1" parent="1">
          <mxGeometry x="440" y="80" width="20" height="30" as="geometry" />
        </mxCell>
        <mxCell id="kxutMdqyqpS05VkYV1p_-20" value="" style="rounded=0;whiteSpace=wrap;html=1;fillColor=#d5e8d4;strokeColor=#82b366;" vertex="1" parent="1">
          <mxGeometry x="460" y="80" width="20" height="30" as="geometry" />
        </mxCell>
        <mxCell id="kxutMdqyqpS05VkYV1p_-21" value="" style="rounded=0;whiteSpace=wrap;html=1;fillColor=#d5e8d4;strokeColor=#82b366;" vertex="1" parent="1">
          <mxGeometry x="480" y="80" width="20" height="30" as="geometry" />
        </mxCell>
        <mxCell id="kxutMdqyqpS05VkYV1p_-22" value="" style="rounded=0;whiteSpace=wrap;html=1;fillColor=#d5e8d4;strokeColor=#82b366;" vertex="1" parent="1">
          <mxGeometry x="500" y="80" width="20" height="30" as="geometry" />
        </mxCell>
        <mxCell id="kxutMdqyqpS05VkYV1p_-23" value="" style="rounded=0;whiteSpace=wrap;html=1;fillColor=#d5e8d4;strokeColor=#82b366;" vertex="1" parent="1">
          <mxGeometry x="520" y="80" width="20" height="30" as="geometry" />
        </mxCell>
        <mxCell id="kxutMdqyqpS05VkYV1p_-24" value="" style="rounded=0;whiteSpace=wrap;html=1;fillColor=#d5e8d4;strokeColor=#82b366;" vertex="1" parent="1">
          <mxGeometry x="540" y="80" width="20" height="30" as="geometry" />
        </mxCell>
        <mxCell id="kxutMdqyqpS05VkYV1p_-25" value="" style="rounded=0;whiteSpace=wrap;html=1;fillColor=#d5e8d4;strokeColor=#82b366;" vertex="1" parent="1">
          <mxGeometry x="560" y="80" width="20" height="30" as="geometry" />
        </mxCell>
        <mxCell id="kxutMdqyqpS05VkYV1p_-26" value="" style="rounded=0;whiteSpace=wrap;html=1;fillColor=#d5e8d4;strokeColor=#82b366;" vertex="1" parent="1">
          <mxGeometry x="580" y="80" width="20" height="30" as="geometry" />
        </mxCell>
        <mxCell id="kxutMdqyqpS05VkYV1p_-27" value="" style="rounded=0;whiteSpace=wrap;html=1;fillColor=#d5e8d4;strokeColor=#82b366;" vertex="1" parent="1">
          <mxGeometry x="600" y="80" width="20" height="30" as="geometry" />
        </mxCell>
        <mxCell id="kxutMdqyqpS05VkYV1p_-28" value="" style="rounded=0;whiteSpace=wrap;html=1;fillColor=#d5e8d4;strokeColor=#82b366;" vertex="1" parent="1">
          <mxGeometry x="620" y="80" width="20" height="30" as="geometry" />
        </mxCell>
        <mxCell id="kxutMdqyqpS05VkYV1p_-29" value="" style="rounded=0;whiteSpace=wrap;html=1;fillColor=#d5e8d4;strokeColor=#82b366;" vertex="1" parent="1">
          <mxGeometry x="640" y="80" width="20" height="30" as="geometry" />
        </mxCell>
        <mxCell id="kxutMdqyqpS05VkYV1p_-30" value="" style="rounded=0;whiteSpace=wrap;html=1;fillColor=#d5e8d4;strokeColor=#82b366;" vertex="1" parent="1">
          <mxGeometry x="660" y="80" width="20" height="30" as="geometry" />
        </mxCell>
        <mxCell id="kxutMdqyqpS05VkYV1p_-31" value="" style="rounded=0;whiteSpace=wrap;html=1;fillColor=#d5e8d4;strokeColor=#82b366;" vertex="1" parent="1">
          <mxGeometry x="680" y="80" width="20" height="30" as="geometry" />
        </mxCell>
        <mxCell id="kxutMdqyqpS05VkYV1p_-32" value="" style="rounded=0;whiteSpace=wrap;html=1;fillColor=#d5e8d4;strokeColor=#82b366;" vertex="1" parent="1">
          <mxGeometry x="700" y="80" width="20" height="30" as="geometry" />
        </mxCell>
        <mxCell id="kxutMdqyqpS05VkYV1p_-33" value="부호: 1비트" style="text;html=1;align=center;verticalAlign=middle;whiteSpace=wrap;rounded=0;" vertex="1" parent="1">
          <mxGeometry x="60" y="50" width="60" height="30" as="geometry" />
        </mxCell>
        <mxCell id="kxutMdqyqpS05VkYV1p_-50" value="지수: 8비트" style="text;html=1;align=center;verticalAlign=middle;whiteSpace=wrap;rounded=0;" vertex="1" parent="1">
          <mxGeometry x="150" y="50" width="60" height="30" as="geometry" />
        </mxCell>
        <mxCell id="kxutMdqyqpS05VkYV1p_-51" value="가수: 23비트" style="text;html=1;align=center;verticalAlign=middle;whiteSpace=wrap;rounded=0;" vertex="1" parent="1">
          <mxGeometry x="440" y="50" width="70" height="30" as="geometry" />
        </mxCell>
      </root>
    </mxGraphModel>
  </diagram>
</mxfile>
